<?xml version="1.0" encoding="iso-8859-1"?>
<!-- Uploaded to: SVG Repo, www.svgrepo.com, Generator: SVG Repo Mixer Tools -->
<svg fill="#000000" height="800px" width="800px" version="1.1" id="Layer_1"
    xmlns="http://www.w3.org/2000/svg" xmlns:xlink="http://www.w3.org/1999/xlink"
    viewBox="0 0 512 512" xml:space="preserve">
<g>
	<g>
		<path d="M501.551,48.065H10.449C4.678,48.065,0,52.744,0,58.514v271.794v53.555c0,5.77,4.678,10.449,10.449,10.449h191.024
			l-6.992,48.725h-29.071c-5.771,0-10.449,4.679-10.449,10.449c0,5.77,4.678,10.449,10.449,10.449h181.181
			c5.77,0,10.449-4.679,10.449-10.449c0-5.77-4.679-10.449-10.449-10.449h-29.07l-6.993-48.725h191.024
			c5.77,0,10.449-4.679,10.449-10.449v-53.555V58.514C512,52.744,507.321,48.065,501.551,48.065z M215.593,443.037l6.992-48.725
			h66.829l6.994,48.725H215.593z M491.102,373.414H20.898v-32.657h470.204V373.414z M491.102,319.859H20.898V68.963h470.204V319.859
			z"/>
	</g>
</g>
<g>
	<g>
		<path d="M376.107,103.629H135.894c-5.77,0-10.449,4.679-10.449,10.449v124.361v36.307c0,5.77,4.678,10.449,10.449,10.449h240.213
			c5.77,0,10.449-4.679,10.449-10.449v-44.282V114.078C386.556,108.308,381.877,103.629,376.107,103.629z M146.342,124.526h219.315
			v0.001v86.472l-37.901-25.131c-3.045-2.02-6.92-2.3-10.225-0.746l-72.801,34.275l-37.914-35.143
			c-3.663-3.398-9.22-3.723-13.259-0.781l-47.215,34.417V124.526z M146.343,264.295v-20.545l52.575-38.325l36.741,34.056
			l26.511,24.813H146.343z M365.658,264.295h-0.001h-72.905l-31.57-29.548l59.929-28.213l44.546,29.537V264.295z"/>
	</g>
</g>
<g>
	<g>
		<path d="M55.38,130.229c-5.77,0-10.449,4.679-10.449,10.449v4.693c0,5.77,4.679,10.449,10.449,10.449
			c5.77,0,10.449-4.678,10.449-10.449v-4.693C65.829,134.908,61.15,130.229,55.38,130.229z"/>
	</g>
</g>
<g>
	<g>
		<path d="M55.38,168.837c-5.77,0-10.449,4.679-10.449,10.449v69.188c0,5.77,4.679,10.449,10.449,10.449
			c5.77,0,10.449-4.679,10.449-10.449v-69.188C65.829,173.516,61.15,168.837,55.38,168.837z"/>
	</g>
</g>
</svg>